<svg width="93" height="60" viewBox="0 0 93 60" fill="none" xmlns="http://www.w3.org/2000/svg">
<path d="M8.4375 59.6875C6.8125 59.7292 5.47917 59.4375 4.4375 58.8125C3.35417 58.1875 2.52083 57.2708 1.9375 56.0625C1.3125 54.8958 0.916667 53.4583 0.75 51.75C0.583333 50.0833 0.583333 48.25 0.75 46.25C0.958333 44.7083 1.33333 43.1042 1.875 41.4375C2.33333 40.0208 3.04167 38.4583 4 36.75C4.91667 35.0417 6.16667 33.375 7.75 31.75C8.08333 31.8333 8.35417 31.9375 8.5625 32.0625C8.77083 32.1458 8.9375 32.25 9.0625 32.375C9.1875 32.5417 9.27083 32.6875 9.3125 32.8125C9.39583 33.2708 9.27083 33.7917 8.9375 34.375C8.60417 34.9583 8.27083 35.5833 7.9375 36.25C7.02083 38.1667 6.33333 39.9792 5.875 41.6875C5.41667 43.3958 5.125 44.9792 5 46.4375C4.91667 47.6875 4.9375 48.8125 5.0625 49.8125C5.14583 50.8542 5.29167 51.7292 5.5 52.4375C5.70833 53.1875 5.9375 53.75 6.1875 54.125C6.4375 54.5417 6.66667 54.75 6.875 54.75C7.08333 54.75 7.29167 54.6042 7.5 54.3125C7.75 54.0208 7.97917 53.6667 8.1875 53.25C8.4375 52.8333 8.72917 52.1875 9.0625 51.3125C9.39583 50.4792 9.75 49.5 10.125 48.375C10.5 47.25 10.8542 46.0417 11.1875 44.75C11.5625 43.4167 11.8958 42.0833 12.1875 40.75C12.7708 38.0833 13.3958 35.0833 14.0625 31.75C14.7292 28.375 15.7083 24.8542 17 21.1875C17.4167 19.6458 17.9375 17.9583 18.5625 16.125C19.0625 14.5417 19.6875 12.7083 20.4375 10.625C21.2292 8.5 22.125 6.20833 23.125 3.75C23.125 3.54167 23.2917 3.35417 23.625 3.1875C24 2.97917 24.4167 2.77083 24.875 2.5625C25.375 2.35417 25.9375 2.14583 26.5625 1.9375C27.3958 1.64583 28.0417 1.47917 28.5 1.4375C29 1.39583 29.375 1.45833 29.625 1.625C29.875 1.79167 30.0417 2.02083 30.125 2.3125C30.2083 2.5625 30.25 2.85417 30.25 3.1875C30.3333 4.5625 30.375 5.85417 30.375 7.0625C30.4167 8.27083 30.4583 9.33333 30.5 10.25C30.5417 11.3333 30.5625 12.3125 30.5625 13.1875C30.6042 14.3542 30.5417 15.9167 30.375 17.875C30.2083 19.7917 30.0208 21.8125 29.8125 23.9375C29.6458 26.0625 29.4792 28.1458 29.3125 30.1875C29.1875 32.1875 29.1667 33.8542 29.25 35.1875C29.25 35.8958 29.2708 36.5625 29.3125 37.1875C29.3958 37.7708 29.4792 38.3542 29.5625 38.9375C30.1042 37.4375 30.7083 35.875 31.375 34.25C32.0417 32.5833 32.7083 31 33.375 29.5C34.0417 27.9583 34.6667 26.5417 35.25 25.25C35.8333 23.9167 36.2917 22.8125 36.625 21.9375C37.125 20.7708 37.7917 19.2917 38.625 17.5C39.4583 15.7083 40.2917 13.9167 41.125 12.125C42 10.3333 42.7917 8.6875 43.5 7.1875C44.25 5.6875 44.7917 4.64583 45.125 4.0625C45.375 3.64583 45.7917 3.27083 46.375 2.9375C47 2.60417 47.6458 2.3125 48.3125 2.0625C49.0208 1.8125 49.6667 1.64583 50.25 1.5625C50.875 1.4375 51.2917 1.41667 51.5 1.5C52.0417 1.625 52.4167 1.79167 52.625 2C52.875 2.20833 53.0208 2.35417 53.0625 2.4375C53.1458 2.60417 53.2083 2.89583 53.25 3.3125C53.2917 3.6875 53.2708 4.29167 53.1875 5.125C53.1042 6.125 52.8542 7.64583 52.4375 9.6875C52.0625 11.7292 51.5833 14.0625 51 16.6875C50.4583 19.2708 49.8542 22.0417 49.1875 25C48.5625 27.9583 47.9583 30.875 47.375 33.75C46.7917 36.5833 46.2708 39.25 45.8125 41.75C45.3958 44.25 45.125 46.3542 45 48.0625C44.9167 49.9792 45.0417 51.6667 45.375 53.125C45.5 53.75 45.6875 54.3542 45.9375 54.9375C46.1875 55.5208 46.5208 56.0208 46.9375 56.4375C47.3542 56.8958 47.8542 57.2292 48.4375 57.4375C49.0208 57.6458 49.7083 57.7083 50.5 57.625C49.4583 58.3333 48.4375 58.8542 47.4375 59.1875C46.4375 59.5208 45.4583 59.6875 44.5 59.6875C43.4583 59.7292 42.5417 59.5625 41.75 59.1875C40.9583 58.8542 40.2917 58.3542 39.75 57.6875C39.2083 57.0625 38.8125 56.2917 38.5625 55.375C38.3125 54.5 38.2292 53.5208 38.3125 52.4375C38.3958 51.4375 38.6667 49.7917 39.125 47.5C39.5833 45.2083 40.125 42.625 40.75 39.75C41.4167 36.8333 42.125 33.8125 42.875 30.6875C43.6667 27.5208 44.3958 24.5625 45.0625 21.8125C45.7708 19.0208 46.375 16.625 46.875 14.625C47.375 12.625 47.6875 11.3125 47.8125 10.6875C47.8958 10.1875 47.9583 9.72917 48 9.3125C48.0833 8.85417 48.1667 8.45833 48.25 8.125C47.8333 8.95833 47.3125 9.95833 46.6875 11.125C46.1042 12.2917 45.4792 13.5417 44.8125 14.875C44.1458 16.2083 43.4583 17.6042 42.75 19.0625C42.0833 20.4792 41.4375 21.8542 40.8125 23.1875C39.7708 25.3542 38.75 27.5833 37.75 29.875C36.75 32.125 35.8542 34.2708 35.0625 36.3125C34.2708 38.3542 33.6042 40.1875 33.0625 41.8125C32.5625 43.4375 32.2708 44.6875 32.1875 45.5625V46.4375C32.1875 46.6875 32.1875 46.9792 32.1875 47.3125C32.2292 47.6458 32.2917 47.9583 32.375 48.25L29.875 50.1875C29.5 50.3125 29.1667 50.4167 28.875 50.5C28.625 50.5833 28.375 50.625 28.125 50.625C27.1667 50.625 26.4375 50.125 25.9375 49.125C25.4375 48.2083 24.9792 46.4167 24.5625 43.75C24.1458 41.0833 24.0208 37.8125 24.1875 33.9375C24.2708 32.0208 24.3958 30.0833 24.5625 28.125C24.7708 26.1667 24.9583 24.2917 25.125 22.5C25.3333 20.7083 25.5208 19.0417 25.6875 17.5C25.8542 15.9167 25.9375 14.5625 25.9375 13.4375C25.9792 12.6042 25.9583 11.8542 25.875 11.1875C25.7917 10.4792 25.7083 9.83333 25.625 9.25C25.25 10.2083 24.8333 11.5208 24.375 13.1875C23.9167 14.8125 23.4375 16.625 22.9375 18.625C22.4375 20.625 21.9167 22.7292 21.375 24.9375C20.875 27.1458 20.375 29.2708 19.875 31.3125C19.4167 33.3542 18.9792 35.25 18.5625 37C18.1458 38.7083 17.8125 40.0833 17.5625 41.125C17.1458 42.7917 16.7292 44.6875 16.3125 46.8125C15.8958 48.9375 15.375 50.9375 14.75 52.8125C14.125 54.7292 13.3125 56.3333 12.3125 57.625C11.3125 58.9583 10.0208 59.6458 8.4375 59.6875ZM54.1875 56.0625C53.8125 55.8125 53.625 55.5417 53.625 55.25C53.5833 54.9583 53.6458 54.6667 53.8125 54.375C53.9792 54.0417 54.2292 53.7083 54.5625 53.375C54.8958 53.0833 55.2917 52.3333 55.75 51.125C56.2083 49.9583 56.6875 48.5417 57.1875 46.875C57.7292 45.1667 58.25 43.3125 58.75 41.3125C59.2917 39.3125 59.7917 37.3542 60.25 35.4375C60.7083 33.5208 61.1042 31.75 61.4375 30.125C61.7708 28.5 62.0208 27.2083 62.1875 26.25C62.3958 25.0833 62.625 23.8125 62.875 22.4375C63.0833 21.2292 63.3125 19.8333 63.5625 18.25C63.8125 16.625 64.0417 14.8333 64.25 12.875L69.25 10.625C69.9583 10.2917 70.4583 10.375 70.75 10.875C71.0417 11.3333 71.0417 12.3125 70.75 13.8125C70.625 14.5625 70.3958 15.7917 70.0625 17.5C69.7292 19.1667 69.3333 21.0208 68.875 23.0625C68.4583 25.0625 68 27.125 67.5 29.25C67.0417 31.3333 66.5833 33.1875 66.125 34.8125C65.7083 36.3542 65.2292 38.125 64.6875 40.125C63.7292 43.5417 62.3958 48.2083 60.6875 54.125C61.2708 55.125 62.3542 55.625 63.9375 55.625C65.6875 55.625 67.7083 54.9583 70 53.625C72.3333 52.2917 74.5833 50.2917 76.75 47.625C78.9167 44.9583 80.8125 41.625 82.4375 37.625C84.1042 33.5833 85.1458 28.875 85.5625 23.5C85.7708 20.5833 85.625 18.0208 85.125 15.8125C84.625 13.6042 83.8542 11.75 82.8125 10.25C81.8125 8.75 80.5625 7.625 79.0625 6.875C77.6042 6.125 75.9792 5.75 74.1875 5.75C69.9792 5.75 65.625 7.5 61.125 11L60.8125 5.8125C61.8958 4.60417 63.125 3.6875 64.5 3.0625C65.9167 2.39583 67.2292 1.89583 68.4375 1.5625C69.8542 1.1875 71.2917 0.979167 72.75 0.9375C75.4167 0.9375 77.9792 1.45833 80.4375 2.5C82.9375 3.5 85.0833 5.04167 86.875 7.125C88.7083 9.20833 90.1042 11.8333 91.0625 15C92.0208 18.125 92.3542 21.7917 92.0625 26C91.8958 28.4167 91.3958 30.9375 90.5625 33.5625C89.7708 36.1458 88.7083 38.6875 87.375 41.1875C86.0833 43.6875 84.5417 46.0625 82.75 48.3125C80.9583 50.5625 79 52.5208 76.875 54.1875C74.75 55.8958 72.4792 57.2292 70.0625 58.1875C67.6458 59.1875 65.1458 59.6875 62.5625 59.6875C61.7708 59.6458 60.9167 59.5 60 59.25C59.2083 59.0417 58.3125 58.6875 57.3125 58.1875C56.3125 57.6875 55.2708 56.9792 54.1875 56.0625Z" fill="#EAF4E9"/>
</svg>
