<svg width="347" height="76" viewBox="0 0 347 76" fill="none" xmlns="http://www.w3.org/2000/svg">
<path d="M8.4375 59.6875C6.8125 59.7292 5.47917 59.4375 4.4375 58.8125C3.35417 58.1875 2.52083 57.2708 1.9375 56.0625C1.3125 54.8958 0.916667 53.4583 0.75 51.75C0.583333 50.0833 0.583333 48.25 0.75 46.25C0.958333 44.7083 1.33333 43.1042 1.875 41.4375C2.33333 40.0208 3.04167 38.4583 4 36.75C4.91667 35.0417 6.16667 33.375 7.75 31.75C8.08333 31.8333 8.35417 31.9375 8.5625 32.0625C8.77083 32.1458 8.9375 32.25 9.0625 32.375C9.1875 32.5417 9.27083 32.6875 9.3125 32.8125C9.39583 33.2708 9.27083 33.7917 8.9375 34.375C8.60417 34.9583 8.27083 35.5833 7.9375 36.25C7.02083 38.1667 6.33333 39.9792 5.875 41.6875C5.41667 43.3958 5.125 44.9792 5 46.4375C4.91667 47.6875 4.9375 48.8125 5.0625 49.8125C5.14583 50.8542 5.29167 51.7292 5.5 52.4375C5.70833 53.1875 5.9375 53.75 6.1875 54.125C6.4375 54.5417 6.66667 54.75 6.875 54.75C7.08333 54.75 7.29167 54.6042 7.5 54.3125C7.75 54.0208 7.97917 53.6667 8.1875 53.25C8.4375 52.8333 8.72917 52.1875 9.0625 51.3125C9.39583 50.4792 9.75 49.5 10.125 48.375C10.5 47.25 10.8542 46.0417 11.1875 44.75C11.5625 43.4167 11.8958 42.0833 12.1875 40.75C12.7708 38.0833 13.3958 35.0833 14.0625 31.75C14.7292 28.375 15.7083 24.8542 17 21.1875C17.4167 19.6458 17.9375 17.9583 18.5625 16.125C19.0625 14.5417 19.6875 12.7083 20.4375 10.625C21.2292 8.5 22.125 6.20833 23.125 3.75C23.125 3.54167 23.2917 3.35417 23.625 3.1875C24 2.97917 24.4167 2.77083 24.875 2.5625C25.375 2.35417 25.9375 2.14583 26.5625 1.9375C27.3958 1.64583 28.0417 1.47917 28.5 1.4375C29 1.39583 29.375 1.45833 29.625 1.625C29.875 1.79167 30.0417 2.02083 30.125 2.3125C30.2083 2.5625 30.25 2.85417 30.25 3.1875C30.3333 4.5625 30.375 5.85417 30.375 7.0625C30.4167 8.27083 30.4583 9.33333 30.5 10.25C30.5417 11.3333 30.5625 12.3125 30.5625 13.1875C30.6042 14.3542 30.5417 15.9167 30.375 17.875C30.2083 19.7917 30.0208 21.8125 29.8125 23.9375C29.6458 26.0625 29.4792 28.1458 29.3125 30.1875C29.1875 32.1875 29.1667 33.8542 29.25 35.1875C29.25 35.8958 29.2708 36.5625 29.3125 37.1875C29.3958 37.7708 29.4792 38.3542 29.5625 38.9375C30.1042 37.4375 30.7083 35.875 31.375 34.25C32.0417 32.5833 32.7083 31 33.375 29.5C34.0417 27.9583 34.6667 26.5417 35.25 25.25C35.8333 23.9167 36.2917 22.8125 36.625 21.9375C37.125 20.7708 37.7917 19.2917 38.625 17.5C39.4583 15.7083 40.2917 13.9167 41.125 12.125C42 10.3333 42.7917 8.6875 43.5 7.1875C44.25 5.6875 44.7917 4.64583 45.125 4.0625C45.375 3.64583 45.7917 3.27083 46.375 2.9375C47 2.60417 47.6458 2.3125 48.3125 2.0625C49.0208 1.8125 49.6667 1.64583 50.25 1.5625C50.875 1.4375 51.2917 1.41667 51.5 1.5C52.0417 1.625 52.4167 1.79167 52.625 2C52.875 2.20833 53.0208 2.35417 53.0625 2.4375C53.1458 2.60417 53.2083 2.89583 53.25 3.3125C53.2917 3.6875 53.2708 4.29167 53.1875 5.125C53.1042 6.125 52.8542 7.64583 52.4375 9.6875C52.0625 11.7292 51.5833 14.0625 51 16.6875C50.4583 19.2708 49.8542 22.0417 49.1875 25C48.5625 27.9583 47.9583 30.875 47.375 33.75C46.7917 36.5833 46.2708 39.25 45.8125 41.75C45.3958 44.25 45.125 46.3542 45 48.0625C44.9167 49.9792 45.0417 51.6667 45.375 53.125C45.5 53.75 45.6875 54.3542 45.9375 54.9375C46.1875 55.5208 46.5208 56.0208 46.9375 56.4375C47.3542 56.8958 47.8542 57.2292 48.4375 57.4375C49.0208 57.6458 49.7083 57.7083 50.5 57.625C49.4583 58.3333 48.4375 58.8542 47.4375 59.1875C46.4375 59.5208 45.4583 59.6875 44.5 59.6875C43.4583 59.7292 42.5417 59.5625 41.75 59.1875C40.9583 58.8542 40.2917 58.3542 39.75 57.6875C39.2083 57.0625 38.8125 56.2917 38.5625 55.375C38.3125 54.5 38.2292 53.5208 38.3125 52.4375C38.3958 51.4375 38.6667 49.7917 39.125 47.5C39.5833 45.2083 40.125 42.625 40.75 39.75C41.4167 36.8333 42.125 33.8125 42.875 30.6875C43.6667 27.5208 44.3958 24.5625 45.0625 21.8125C45.7708 19.0208 46.375 16.625 46.875 14.625C47.375 12.625 47.6875 11.3125 47.8125 10.6875C47.8958 10.1875 47.9583 9.72917 48 9.3125C48.0833 8.85417 48.1667 8.45833 48.25 8.125C47.8333 8.95833 47.3125 9.95833 46.6875 11.125C46.1042 12.2917 45.4792 13.5417 44.8125 14.875C44.1458 16.2083 43.4583 17.6042 42.75 19.0625C42.0833 20.4792 41.4375 21.8542 40.8125 23.1875C39.7708 25.3542 38.75 27.5833 37.75 29.875C36.75 32.125 35.8542 34.2708 35.0625 36.3125C34.2708 38.3542 33.6042 40.1875 33.0625 41.8125C32.5625 43.4375 32.2708 44.6875 32.1875 45.5625V46.4375C32.1875 46.6875 32.1875 46.9792 32.1875 47.3125C32.2292 47.6458 32.2917 47.9583 32.375 48.25L29.875 50.1875C29.5 50.3125 29.1667 50.4167 28.875 50.5C28.625 50.5833 28.375 50.625 28.125 50.625C27.1667 50.625 26.4375 50.125 25.9375 49.125C25.4375 48.2083 24.9792 46.4167 24.5625 43.75C24.1458 41.0833 24.0208 37.8125 24.1875 33.9375C24.2708 32.0208 24.3958 30.0833 24.5625 28.125C24.7708 26.1667 24.9583 24.2917 25.125 22.5C25.3333 20.7083 25.5208 19.0417 25.6875 17.5C25.8542 15.9167 25.9375 14.5625 25.9375 13.4375C25.9792 12.6042 25.9583 11.8542 25.875 11.1875C25.7917 10.4792 25.7083 9.83333 25.625 9.25C25.25 10.2083 24.8333 11.5208 24.375 13.1875C23.9167 14.8125 23.4375 16.625 22.9375 18.625C22.4375 20.625 21.9167 22.7292 21.375 24.9375C20.875 27.1458 20.375 29.2708 19.875 31.3125C19.4167 33.3542 18.9792 35.25 18.5625 37C18.1458 38.7083 17.8125 40.0833 17.5625 41.125C17.1458 42.7917 16.7292 44.6875 16.3125 46.8125C15.8958 48.9375 15.375 50.9375 14.75 52.8125C14.125 54.7292 13.3125 56.3333 12.3125 57.625C11.3125 58.9583 10.0208 59.6458 8.4375 59.6875ZM82.25 35C81 36.8333 79.5833 38.625 78 40.375C76.4167 42.0833 74.7292 43.625 72.9375 45C71.1875 46.3333 69.375 47.4167 67.5 48.25C65.6667 49.0833 63.875 49.5 62.125 49.5C61.2083 49.5 60.2083 49.2708 59.125 48.8125C58.0833 48.3958 57.125 47.7292 56.25 46.8125C55.375 45.8958 54.6667 44.7083 54.125 43.25C53.625 41.7917 53.4792 40.0208 53.6875 37.9375C53.8542 36.2292 54.375 34.4375 55.25 32.5625C56.1667 30.6458 57.2708 28.8958 58.5625 27.3125C59.8958 25.7292 61.375 24.4167 63 23.375C64.6667 22.3333 66.3333 21.8125 68 21.8125C69.5833 21.8125 70.7292 22.2083 71.4375 23C72.1458 23.7917 72.4583 24.7708 72.375 25.9375C72.25 27.2292 71.875 28.4167 71.25 29.5C70.6667 30.5833 69.9583 31.5625 69.125 32.4375C68.2917 33.3125 67.3958 34.1042 66.4375 34.8125C65.5208 35.5208 64.6458 36.1667 63.8125 36.75C62.8958 37.375 62.0208 37.9792 61.1875 38.5625C60.3542 39.1042 59.625 39.6042 59 40.0625C59.0417 41.1042 59.2292 41.9792 59.5625 42.6875C59.8958 43.3958 60.3125 43.9792 60.8125 44.4375C61.3125 44.8542 61.875 45.1667 62.5 45.375C63.1667 45.5417 63.8333 45.625 64.5 45.625C65.9167 45.625 67.3958 45.1875 68.9375 44.3125C70.4792 43.3958 71.9792 42.3125 73.4375 41.0625C74.9375 39.7708 76.3125 38.4375 77.5625 37.0625C78.8542 35.6875 79.9167 34.5 80.75 33.5C81.0417 33.1667 81.3333 32.9792 81.625 32.9375C81.9583 32.8542 82.2083 32.8958 82.375 33.0625C82.5833 33.1875 82.6875 33.4375 82.6875 33.8125C82.6875 34.1458 82.5417 34.5417 82.25 35ZM66.25 25.375C65.75 25.375 65.1458 25.625 64.4375 26.125C63.7708 26.625 63.1042 27.3542 62.4375 28.3125C61.7708 29.2292 61.1458 30.375 60.5625 31.75C59.9792 33.0833 59.5417 34.625 59.25 36.375C59.75 36 60.2917 35.625 60.875 35.25C61.4583 34.8333 62.0417 34.3958 62.625 33.9375C64.4167 32.5625 65.6667 31.3542 66.375 30.3125C67.0833 29.2708 67.4792 28.375 67.5625 27.625C67.6458 26.8333 67.5625 26.2708 67.3125 25.9375C67.0625 25.5625 66.7083 25.375 66.25 25.375ZM71.375 9.5625C71.75 9.27083 72.1667 9.29167 72.625 9.625C73.0833 9.95833 73.4167 10.4583 73.625 11.125C73.9167 12 73.9375 12.6667 73.6875 13.125C73.4375 13.5417 73.0625 13.9167 72.5625 14.25C72.3125 14.4583 71.8333 14.75 71.125 15.125C70.4583 15.5 69.7083 15.8958 68.875 16.3125C68.0833 16.6875 67.2917 17.0417 66.5 17.375C65.7083 17.6667 65.1042 17.8333 64.6875 17.875C64.2292 17.9167 63.875 17.875 63.625 17.75C63.375 17.5833 63.1667 17.3958 63 17.1875C62.875 16.9792 62.7917 16.75 62.75 16.5C62.7083 16.2083 62.6875 15.9583 62.6875 15.75C65.9375 13.5 68.2083 11.8958 69.5 10.9375C70.25 10.3958 70.875 9.9375 71.375 9.5625ZM76.8125 47C78.6458 39.2917 80.1042 33.1042 81.1875 28.4375C82.3125 23.7708 83.1667 20.2083 83.75 17.75C84.4167 14.8333 84.875 12.8125 85.125 11.6875C85.25 10.8958 85.3542 10.125 85.4375 9.375C85.5208 8.70833 85.5625 8.02083 85.5625 7.3125C85.5625 6.60417 85.5 5.95833 85.375 5.375C85.7083 5.16667 86.0625 5 86.4375 4.875C86.8542 4.75 87.25 4.64583 87.625 4.5625C88.0833 4.4375 88.5417 4.33333 89 4.25C89.4583 4.16667 89.875 4.125 90.25 4.125C90.5833 4.125 90.8958 4.16667 91.1875 4.25C91.4792 4.29167 91.6667 4.41667 91.75 4.625C92 4.83333 92.1042 5.25 92.0625 5.875C92.0625 6.5 92.0208 7.14583 91.9375 7.8125C91.7708 8.60417 91.5833 9.45833 91.375 10.375C90.875 12.1667 90.1875 14.75 89.3125 18.125C88.5625 21 87.5417 24.9167 86.25 29.875C85 34.8333 83.4167 41.0833 81.5 48.625C81.2917 48.8333 81.0417 48.9792 80.75 49.0625C80.4583 49.1458 80.1875 49.1875 79.9375 49.1875C79.6458 49.1875 79.3333 49.1667 79 49.125C78.7083 49.0417 78.4167 48.9167 78.125 48.75C77.875 48.5833 77.625 48.3542 77.375 48.0625C77.125 47.8125 76.9375 47.4583 76.8125 47ZM123.812 35.5625C123.229 36.3958 122.479 37.4375 121.562 38.6875C120.646 39.8958 119.688 41.125 118.688 42.375C117.729 43.5833 116.771 44.7083 115.812 45.75C114.896 46.75 114.125 47.4583 113.5 47.875C113.083 48.125 112.604 48.3333 112.062 48.5C111.521 48.6667 110.958 48.7708 110.375 48.8125C109.833 48.8542 109.312 48.8125 108.812 48.6875C108.312 48.6042 107.875 48.4375 107.5 48.1875C107.125 47.8958 106.812 47.4792 106.562 46.9375C106.354 46.4792 106.146 45.875 105.938 45.125C105.771 44.375 105.708 43.4375 105.75 42.3125C104.75 43.9792 103.646 45.2708 102.438 46.1875C101.229 47.0625 100.083 47.7083 99 48.125C97.75 48.5833 96.5 48.8542 95.25 48.9375C94.6667 48.9375 94.0417 48.7292 93.375 48.3125C92.7083 47.9375 92.1458 47.3333 91.6875 46.5C91.2292 45.625 90.9375 44.5208 90.8125 43.1875C90.6875 41.8125 90.8542 40.1875 91.3125 38.3125C91.8958 35.7708 92.8125 33.4583 94.0625 31.375C95.3542 29.2917 96.75 27.5208 98.25 26.0625C99.75 24.5625 101.229 23.4375 102.688 22.6875C104.146 21.9375 105.354 21.6042 106.312 21.6875C107.438 21.8958 108.354 22.2292 109.062 22.6875C109.646 23.1042 110.021 23.7292 110.188 24.5625C110.396 25.3542 110.062 26.4167 109.188 27.75C109.771 27.625 110.25 27.5417 110.625 27.5C111.042 27.4583 111.354 27.4375 111.562 27.4375C111.812 27.4375 111.979 27.4583 112.062 27.5C112.104 27.5833 112.125 27.7708 112.125 28.0625C112.125 28.3125 112.062 28.7917 111.938 29.5C111.812 30.2083 111.625 31.1667 111.375 32.375C111.125 33.5833 110.792 35.1458 110.375 37.0625C110.292 37.4375 110.208 37.7917 110.125 38.125C110.083 38.4167 110.021 38.7292 109.938 39.0625C109.896 39.3542 109.833 39.7083 109.75 40.125C109.667 40.5417 109.562 41.0625 109.438 41.6875C109.396 42.0625 109.375 42.4792 109.375 42.9375C109.417 43.3542 109.5 43.75 109.625 44.125C109.75 44.5 109.938 44.8125 110.188 45.0625C110.479 45.2708 110.875 45.375 111.375 45.375C111.792 45.375 112.333 45.125 113 44.625C113.667 44.0833 114.375 43.4167 115.125 42.625C115.875 41.7917 116.646 40.8958 117.438 39.9375C118.271 38.9375 119.042 37.9792 119.75 37.0625C120.458 36.1458 121.083 35.3333 121.625 34.625C122.208 33.9167 122.625 33.3958 122.875 33.0625C123.208 32.6875 123.542 32.4792 123.875 32.4375C124.208 32.3542 124.458 32.4375 124.625 32.6875C124.792 32.9375 124.812 33.3125 124.688 33.8125C124.604 34.3125 124.312 34.8958 123.812 35.5625ZM105.5 38.3125C105.708 37.4792 105.958 36.5 106.25 35.375C106.542 34.25 106.792 33.1667 107 32.125C107.208 31.0833 107.354 30.2292 107.438 29.5625C107.562 28.8542 107.542 28.5208 107.375 28.5625C107.167 28.6042 106.938 28.6667 106.688 28.75C106.479 28.8333 106.208 28.8958 105.875 28.9375C105.542 28.9792 105.208 29.0417 104.875 29.125C105.208 28.4583 105.396 27.9167 105.438 27.5C105.521 27.0417 105.542 26.6875 105.5 26.4375C105.458 26.1458 105.375 25.9167 105.25 25.75C104.792 25.375 103.979 25.6875 102.812 26.6875C101.688 27.6458 100.375 29.4375 98.875 32.0625C98.25 33.1458 97.75 34.3125 97.375 35.5625C97 36.7708 96.7292 37.9167 96.5625 39C96.4375 40.0833 96.4167 41.0417 96.5 41.875C96.5833 42.6667 96.75 43.1875 97 43.4375C97.4583 43.8958 97.9792 44.125 98.5625 44.125C99.1458 44.0833 99.7292 43.9167 100.312 43.625C100.938 43.2917 101.542 42.875 102.125 42.375C102.75 41.875 103.292 41.3542 103.75 40.8125C104.25 40.2708 104.646 39.7708 104.938 39.3125C105.271 38.8542 105.458 38.5208 105.5 38.3125ZM138.188 49.5625C137.229 49.5625 136.396 49.375 135.688 49C135.021 48.6667 134.479 48.2083 134.062 47.625C133.646 47.0417 133.375 46.375 133.25 45.625C133.125 44.8333 133.167 44 133.375 43.125C133.5 42.5417 133.708 41.7708 134 40.8125C134.292 39.8125 134.583 38.75 134.875 37.625C135.208 36.4583 135.5 35.3125 135.75 34.1875C136.042 33.0208 136.229 31.9792 136.312 31.0625C136.396 30.1042 136.354 29.3333 136.188 28.75C136.021 28.125 135.667 27.8125 135.125 27.8125C134.458 27.8125 133.771 28.0417 133.062 28.5C132.354 28.9167 131.625 29.5 130.875 30.25C130.167 31 129.438 31.875 128.688 32.875C127.979 33.8333 127.271 34.8333 126.562 35.875C126.188 37.2917 125.875 38.5417 125.625 39.625C125.375 40.6667 125.146 41.625 124.938 42.5C124.771 43.3333 124.604 44.0833 124.438 44.75C124.271 45.375 124.125 45.9792 124 46.5625C123.875 46.9792 123.5 47.3958 122.875 47.8125C122.25 48.1875 121.583 48.5 120.875 48.75C120.167 49 119.562 49.125 119.062 49.125C118.521 49.125 118.292 48.9375 118.375 48.5625C118.417 48.3125 118.562 47.75 118.812 46.875C119.021 46 119.292 44.9792 119.625 43.8125C119.917 42.6042 120.229 41.3333 120.562 40C120.896 38.6667 121.208 37.3958 121.5 36.1875C121.708 35.2292 121.938 34.1667 122.188 33C122.396 32 122.646 30.8333 122.938 29.5C123.271 28.1667 123.646 26.7083 124.062 25.125C124.354 24.875 124.646 24.6875 124.938 24.5625C125.271 24.3958 125.604 24.2708 125.938 24.1875C126.271 24.0625 126.625 23.9792 127 23.9375C127.333 23.9375 127.667 23.9583 128 24C128.292 24.0417 128.583 24.125 128.875 24.25C129.208 24.3333 129.5 24.4792 129.75 24.6875C129.625 24.9792 129.479 25.3958 129.312 25.9375C129.146 26.4375 128.979 26.9792 128.812 27.5625C128.646 28.2292 128.438 28.9167 128.188 29.625C128.729 28.875 129.333 28.125 130 27.375C130.708 26.5833 131.458 25.875 132.25 25.25C133.083 24.625 133.958 24.125 134.875 23.75C135.792 23.3333 136.729 23.125 137.688 23.125C138.479 23.125 139.188 23.3542 139.812 23.8125C140.438 24.2708 140.917 24.9167 141.25 25.75C141.625 26.5417 141.833 27.5 141.875 28.625C141.958 29.75 141.812 30.9792 141.438 32.3125L140.75 35.0625C140.542 35.9375 140.271 36.9792 139.938 38.1875C139.646 39.3542 139.271 40.6458 138.812 42.0625C138.562 42.9792 138.458 43.7708 138.5 44.4375C138.583 45.1042 139 45.4375 139.75 45.4375C140.5 45.4375 141.438 44.9792 142.562 44.0625C143.729 43.1458 144.896 42.0417 146.062 40.75C147.229 39.4583 148.333 38.1458 149.375 36.8125C150.417 35.4375 151.208 34.3333 151.75 33.5C152.125 32.9583 152.479 32.6042 152.812 32.4375C153.146 32.2708 153.396 32.25 153.562 32.375C153.771 32.5 153.875 32.7917 153.875 33.25C153.875 33.6667 153.708 34.2083 153.375 34.875C153.083 35.4583 152.625 36.2292 152 37.1875C151.417 38.1458 150.708 39.1667 149.875 40.25C149.042 41.3333 148.146 42.4375 147.188 43.5625C146.229 44.6458 145.229 45.6458 144.188 46.5625C143.146 47.4375 142.104 48.1458 141.062 48.6875C140.062 49.2708 139.104 49.5625 138.188 49.5625ZM162.938 11.1875C162.812 11.6458 162.562 12.1042 162.188 12.5625C161.854 12.9792 161.458 13.3333 161 13.625C160.583 13.875 160.146 14.0417 159.688 14.125C159.229 14.2083 158.854 14.125 158.562 13.875C157.688 13.2083 157.229 12.5 157.188 11.75C157.146 10.9583 157.333 10.2292 157.75 9.5625C158.167 8.85417 158.688 8.27083 159.312 7.8125C159.938 7.3125 160.479 7.02083 160.938 6.9375C161.396 6.85417 161.771 6.95833 162.062 7.25C162.396 7.5 162.646 7.85417 162.812 8.3125C162.979 8.72917 163.062 9.20833 163.062 9.75C163.104 10.2917 163.062 10.7708 162.938 11.1875ZM154.312 24.5C154.521 24.25 154.917 24.0417 155.5 23.875C156.083 23.7083 156.688 23.5833 157.312 23.5C157.938 23.375 158.5 23.3125 159 23.3125C159.542 23.2708 159.854 23.2708 159.938 23.3125C159.979 23.3542 159.875 23.7917 159.625 24.625C159.375 25.4583 159.062 26.4375 158.688 27.5625C158.312 28.6875 157.917 29.8542 157.5 31.0625C157.083 32.2292 156.771 33.1875 156.562 33.9375C156.354 34.6875 156.104 35.5417 155.812 36.5C155.521 37.4167 155.25 38.3333 155 39.25C154.792 40.125 154.646 40.9583 154.562 41.75C154.479 42.5417 154.542 43.1458 154.75 43.5625C154.958 44.0625 155.188 44.4167 155.438 44.625C155.688 44.7917 155.958 44.875 156.25 44.875C157.083 44.875 158.125 44.4167 159.375 43.5C160.667 42.5833 161.958 41.5 163.25 40.25C164.583 38.9583 165.812 37.6667 166.938 36.375C168.062 35.0417 168.896 33.9792 169.438 33.1875C169.771 32.7708 170.104 32.5 170.438 32.375C170.812 32.25 171.104 32.2708 171.312 32.4375C171.562 32.6042 171.688 32.875 171.688 33.25C171.729 33.625 171.604 34.0625 171.312 34.5625C170.646 35.7292 169.667 37.125 168.375 38.75C167.083 40.3333 165.708 41.875 164.25 43.375C162.792 44.8333 161.354 46.0833 159.938 47.125C158.562 48.1667 157.438 48.7083 156.562 48.75C155.854 48.7917 155.146 48.6667 154.438 48.375C153.771 48.125 153.146 47.7708 152.562 47.3125C152.021 46.8125 151.562 46.25 151.188 45.625C150.812 44.9583 150.604 44.2708 150.562 43.5625C150.438 42.5208 150.438 41.1042 150.562 39.3125C150.688 37.4792 150.917 35.625 151.25 33.75C151.583 31.8333 152 30.0208 152.5 28.3125C153.042 26.6042 153.646 25.3333 154.312 24.5ZM195.062 35C193.812 36.8333 192.396 38.625 190.812 40.375C189.229 42.0833 187.542 43.625 185.75 45C184 46.3333 182.188 47.4167 180.312 48.25C178.479 49.0833 176.688 49.5 174.938 49.5C174.021 49.5 173.021 49.2708 171.938 48.8125C170.896 48.3958 169.938 47.7292 169.062 46.8125C168.188 45.8958 167.479 44.7083 166.938 43.25C166.438 41.7917 166.292 40.0208 166.5 37.9375C166.667 36.2292 167.188 34.4375 168.062 32.5625C168.979 30.6458 170.083 28.8958 171.375 27.3125C172.708 25.7292 174.188 24.4167 175.812 23.375C177.479 22.3333 179.146 21.8125 180.812 21.8125C182.396 21.8125 183.542 22.2083 184.25 23C184.958 23.7917 185.271 24.7708 185.188 25.9375C185.062 27.2292 184.688 28.4167 184.062 29.5C183.479 30.5833 182.771 31.5625 181.938 32.4375C181.104 33.3125 180.208 34.1042 179.25 34.8125C178.333 35.5208 177.458 36.1667 176.625 36.75C175.708 37.375 174.833 37.9792 174 38.5625C173.167 39.1042 172.438 39.6042 171.812 40.0625C171.854 41.1042 172.042 41.9792 172.375 42.6875C172.708 43.3958 173.125 43.9792 173.625 44.4375C174.125 44.8542 174.688 45.1667 175.312 45.375C175.979 45.5417 176.646 45.625 177.312 45.625C178.729 45.625 180.208 45.1875 181.75 44.3125C183.292 43.3958 184.792 42.3125 186.25 41.0625C187.75 39.7708 189.125 38.4375 190.375 37.0625C191.667 35.6875 192.729 34.5 193.562 33.5C193.854 33.1667 194.146 32.9792 194.438 32.9375C194.771 32.8542 195.021 32.8958 195.188 33.0625C195.396 33.1875 195.5 33.4375 195.5 33.8125C195.5 34.1458 195.354 34.5417 195.062 35ZM179.062 25.375C178.562 25.375 177.958 25.625 177.25 26.125C176.583 26.625 175.917 27.3542 175.25 28.3125C174.583 29.2292 173.958 30.375 173.375 31.75C172.792 33.0833 172.354 34.625 172.062 36.375C172.562 36 173.104 35.625 173.688 35.25C174.271 34.8333 174.854 34.3958 175.438 33.9375C177.229 32.5625 178.479 31.3542 179.188 30.3125C179.896 29.2708 180.292 28.375 180.375 27.625C180.458 26.8333 180.375 26.2708 180.125 25.9375C179.875 25.5625 179.521 25.375 179.062 25.375ZM208.75 56.0625C208.375 55.8125 208.188 55.5417 208.188 55.25C208.146 54.9583 208.208 54.6667 208.375 54.375C208.542 54.0417 208.792 53.7083 209.125 53.375C209.458 53.0833 209.854 52.3333 210.312 51.125C210.771 49.9583 211.25 48.5417 211.75 46.875C212.292 45.1667 212.812 43.3125 213.312 41.3125C213.854 39.3125 214.354 37.3542 214.812 35.4375C215.271 33.5208 215.667 31.75 216 30.125C216.333 28.5 216.583 27.2083 216.75 26.25C216.958 25.0833 217.188 23.8125 217.438 22.4375C217.646 21.2292 217.875 19.8333 218.125 18.25C218.375 16.625 218.604 14.8333 218.812 12.875L223.812 10.625C224.521 10.2917 225.021 10.375 225.312 10.875C225.604 11.3333 225.604 12.3125 225.312 13.8125C225.188 14.5625 224.958 15.7917 224.625 17.5C224.292 19.1667 223.896 21.0208 223.438 23.0625C223.021 25.0625 222.562 27.125 222.062 29.25C221.604 31.3333 221.146 33.1875 220.688 34.8125C220.271 36.3542 219.792 38.125 219.25 40.125C218.292 43.5417 216.958 48.2083 215.25 54.125C215.833 55.125 216.917 55.625 218.5 55.625C220.25 55.625 222.271 54.9583 224.562 53.625C226.896 52.2917 229.146 50.2917 231.312 47.625C233.479 44.9583 235.375 41.625 237 37.625C238.667 33.5833 239.708 28.875 240.125 23.5C240.333 20.5833 240.188 18.0208 239.688 15.8125C239.188 13.6042 238.417 11.75 237.375 10.25C236.375 8.75 235.125 7.625 233.625 6.875C232.167 6.125 230.542 5.75 228.75 5.75C224.542 5.75 220.188 7.5 215.688 11L215.375 5.8125C216.458 4.60417 217.688 3.6875 219.062 3.0625C220.479 2.39583 221.792 1.89583 223 1.5625C224.417 1.1875 225.854 0.979167 227.312 0.9375C229.979 0.9375 232.542 1.45833 235 2.5C237.5 3.5 239.646 5.04167 241.438 7.125C243.271 9.20833 244.667 11.8333 245.625 15C246.583 18.125 246.917 21.7917 246.625 26C246.458 28.4167 245.958 30.9375 245.125 33.5625C244.333 36.1458 243.271 38.6875 241.938 41.1875C240.646 43.6875 239.104 46.0625 237.312 48.3125C235.521 50.5625 233.562 52.5208 231.438 54.1875C229.312 55.8958 227.042 57.2292 224.625 58.1875C222.208 59.1875 219.708 59.6875 217.125 59.6875C216.333 59.6458 215.479 59.5 214.562 59.25C213.771 59.0417 212.875 58.6875 211.875 58.1875C210.875 57.6875 209.833 56.9792 208.75 56.0625ZM262.75 11.1875C262.625 11.6458 262.375 12.1042 262 12.5625C261.667 12.9792 261.271 13.3333 260.812 13.625C260.396 13.875 259.958 14.0417 259.5 14.125C259.042 14.2083 258.667 14.125 258.375 13.875C257.5 13.2083 257.042 12.5 257 11.75C256.958 10.9583 257.146 10.2292 257.562 9.5625C257.979 8.85417 258.5 8.27083 259.125 7.8125C259.75 7.3125 260.292 7.02083 260.75 6.9375C261.208 6.85417 261.583 6.95833 261.875 7.25C262.208 7.5 262.458 7.85417 262.625 8.3125C262.792 8.72917 262.875 9.20833 262.875 9.75C262.917 10.2917 262.875 10.7708 262.75 11.1875ZM254.125 24.5C254.333 24.25 254.729 24.0417 255.312 23.875C255.896 23.7083 256.5 23.5833 257.125 23.5C257.75 23.375 258.312 23.3125 258.812 23.3125C259.354 23.2708 259.667 23.2708 259.75 23.3125C259.792 23.3542 259.688 23.7917 259.438 24.625C259.188 25.4583 258.875 26.4375 258.5 27.5625C258.125 28.6875 257.729 29.8542 257.312 31.0625C256.896 32.2292 256.583 33.1875 256.375 33.9375C256.167 34.6875 255.917 35.5417 255.625 36.5C255.333 37.4167 255.062 38.3333 254.812 39.25C254.604 40.125 254.458 40.9583 254.375 41.75C254.292 42.5417 254.354 43.1458 254.562 43.5625C254.771 44.0625 255 44.4167 255.25 44.625C255.5 44.7917 255.771 44.875 256.062 44.875C256.896 44.875 257.938 44.4167 259.188 43.5C260.479 42.5833 261.771 41.5 263.062 40.25C264.396 38.9583 265.625 37.6667 266.75 36.375C267.875 35.0417 268.708 33.9792 269.25 33.1875C269.583 32.7708 269.917 32.5 270.25 32.375C270.625 32.25 270.917 32.2708 271.125 32.4375C271.375 32.6042 271.5 32.875 271.5 33.25C271.542 33.625 271.417 34.0625 271.125 34.5625C270.458 35.7292 269.479 37.125 268.188 38.75C266.896 40.3333 265.521 41.875 264.062 43.375C262.604 44.8333 261.167 46.0833 259.75 47.125C258.375 48.1667 257.25 48.7083 256.375 48.75C255.667 48.7917 254.958 48.6667 254.25 48.375C253.583 48.125 252.958 47.7708 252.375 47.3125C251.833 46.8125 251.375 46.25 251 45.625C250.625 44.9583 250.417 44.2708 250.375 43.5625C250.25 42.5208 250.25 41.1042 250.375 39.3125C250.5 37.4792 250.729 35.625 251.062 33.75C251.396 31.8333 251.812 30.0208 252.312 28.3125C252.854 26.6042 253.458 25.3333 254.125 24.5ZM299.062 37.9375C298.771 38.3542 298.292 38.9583 297.625 39.75C297 40.5417 296.229 41.3958 295.312 42.3125C294.438 43.2292 293.417 44.1875 292.25 45.1875C291.125 46.1458 289.917 47.0208 288.625 47.8125C288.458 48.7708 288.146 50.125 287.688 51.875C287.229 53.6667 286.625 55.6042 285.875 57.6875C285.125 59.7708 284.25 61.875 283.25 64C282.25 66.1667 281.125 68.125 279.875 69.875C278.667 71.6667 277.333 73.1042 275.875 74.1875C274.417 75.3125 272.875 75.875 271.25 75.875C269.625 75.875 268.354 75.6042 267.438 75.0625C266.521 74.5208 265.854 73.8125 265.438 72.9375C264.979 72.1042 264.708 71.1667 264.625 70.125C264.542 69.125 264.521 68.1458 264.562 67.1875C264.604 65.9375 264.979 64.4792 265.688 62.8125C266.396 61.1875 267.375 59.5208 268.625 57.8125C269.917 56.1458 271.458 54.5417 273.25 53C275.042 51.5 277.042 50.2292 279.25 49.1875C280.333 48.7292 281.333 48.2917 282.25 47.875C283.167 47.4167 284.021 46.9792 284.812 46.5625C285.146 45.1875 285.167 44.2708 284.875 43.8125C284.625 43.3542 284.25 43.125 283.75 43.125C283 43.125 282.104 43.4583 281.062 44.125C280.062 44.7917 278.812 45.8333 277.312 47.25C276.896 47.2917 276.521 47.25 276.188 47.125C275.896 46.9583 275.646 46.7708 275.438 46.5625C275.188 46.3542 274.979 46.1042 274.812 45.8125C274.354 45.1042 274.146 44.3958 274.188 43.6875C274.271 42.9792 274.604 42.4167 275.188 42C275.771 41.5417 276.625 40.8125 277.75 39.8125C278.917 38.7708 280.042 37.4583 281.125 35.875C281.458 35.4167 281.854 34.8542 282.312 34.1875C282.812 33.4792 283.292 32.7292 283.75 31.9375C284.25 31.1042 284.708 30.25 285.125 29.375C285.583 28.5 285.938 27.6667 286.188 26.875C285.354 26.75 284.146 26.7708 282.562 26.9375C281.729 27.1042 280.833 27.2917 279.875 27.5C279.042 27.7083 278.083 27.9792 277 28.3125C275.958 28.6458 274.854 29.1042 273.688 29.6875C273.521 29.6042 273.396 29.4375 273.312 29.1875C273.229 28.9375 273.167 28.6458 273.125 28.3125C273.083 27.9375 273.062 27.5208 273.062 27.0625C273.062 26.4792 273.146 26 273.312 25.625C273.521 25.2083 273.771 24.875 274.062 24.625C274.354 24.375 274.667 24.1875 275 24.0625C275.333 23.8958 275.625 23.7708 275.875 23.6875C276.167 23.6042 276.729 23.5 277.562 23.375C278.438 23.2083 279.417 23.0625 280.5 22.9375C281.583 22.8125 282.708 22.7292 283.875 22.6875C285.042 22.6042 286.104 22.5833 287.062 22.625C289.021 22.75 290.25 23.0208 290.75 23.4375C291.292 23.8125 291.438 24.4167 291.188 25.25C290.896 26.0833 290.333 27.5 289.5 29.5C288.667 31.4583 287.396 33.7292 285.688 36.3125C284.979 37.2708 284.333 38.1667 283.75 39C283.167 39.8333 282.604 40.5625 282.062 41.1875C282.771 40.8542 283.479 40.6042 284.188 40.4375C284.896 40.2292 285.604 40.125 286.312 40.125C287.271 40.125 287.896 40.5833 288.188 41.5C288.521 42.4167 288.708 43.4167 288.75 44.5C290.417 43.4583 291.896 42.3542 293.188 41.1875C294.521 40.0208 295.938 38.5208 297.438 36.6875C297.812 36.2292 298.146 35.9583 298.438 35.875C298.771 35.7917 299.021 35.8542 299.188 36.0625C299.354 36.2292 299.438 36.5 299.438 36.875C299.438 37.2083 299.312 37.5625 299.062 37.9375ZM283.438 51.5625C283.521 51.2292 283.604 50.9167 283.688 50.625C283.812 50.375 283.917 50.1042 284 49.8125C281.833 51.0208 279.854 52.2917 278.062 53.625C276.271 55 274.708 56.4375 273.375 57.9375C272.083 59.4375 271.062 61 270.312 62.625C269.562 64.25 269.146 65.8958 269.062 67.5625C269.021 68.5625 269.167 69.4167 269.5 70.125C269.875 70.8333 270.521 71.1875 271.438 71.1875C272.438 71.1875 273.5 70.4583 274.625 69C275.792 67.5833 276.917 65.8333 278 63.75C279.125 61.7083 280.167 59.5625 281.125 57.3125C282.083 55.1042 282.854 53.1875 283.438 51.5625ZM323.562 35C322.312 36.8333 320.896 38.625 319.312 40.375C317.729 42.0833 316.042 43.625 314.25 45C312.5 46.3333 310.688 47.4167 308.812 48.25C306.979 49.0833 305.188 49.5 303.438 49.5C302.521 49.5 301.521 49.2708 300.438 48.8125C299.396 48.3958 298.438 47.7292 297.562 46.8125C296.688 45.8958 295.979 44.7083 295.438 43.25C294.938 41.7917 294.792 40.0208 295 37.9375C295.167 36.2292 295.688 34.4375 296.562 32.5625C297.479 30.6458 298.583 28.8958 299.875 27.3125C301.208 25.7292 302.688 24.4167 304.312 23.375C305.979 22.3333 307.646 21.8125 309.312 21.8125C310.896 21.8125 312.042 22.2083 312.75 23C313.458 23.7917 313.771 24.7708 313.688 25.9375C313.562 27.2292 313.188 28.4167 312.562 29.5C311.979 30.5833 311.271 31.5625 310.438 32.4375C309.604 33.3125 308.708 34.1042 307.75 34.8125C306.833 35.5208 305.958 36.1667 305.125 36.75C304.208 37.375 303.333 37.9792 302.5 38.5625C301.667 39.1042 300.938 39.6042 300.312 40.0625C300.354 41.1042 300.542 41.9792 300.875 42.6875C301.208 43.3958 301.625 43.9792 302.125 44.4375C302.625 44.8542 303.188 45.1667 303.812 45.375C304.479 45.5417 305.146 45.625 305.812 45.625C307.229 45.625 308.708 45.1875 310.25 44.3125C311.792 43.3958 313.292 42.3125 314.75 41.0625C316.25 39.7708 317.625 38.4375 318.875 37.0625C320.167 35.6875 321.229 34.5 322.062 33.5C322.354 33.1667 322.646 32.9792 322.938 32.9375C323.271 32.8542 323.521 32.8958 323.688 33.0625C323.896 33.1875 324 33.4375 324 33.8125C324 34.1458 323.854 34.5417 323.562 35ZM307.562 25.375C307.062 25.375 306.458 25.625 305.75 26.125C305.083 26.625 304.417 27.3542 303.75 28.3125C303.083 29.2292 302.458 30.375 301.875 31.75C301.292 33.0833 300.854 34.625 300.562 36.375C301.062 36 301.604 35.625 302.188 35.25C302.771 34.8333 303.354 34.3958 303.938 33.9375C305.729 32.5625 306.979 31.3542 307.688 30.3125C308.396 29.2708 308.792 28.375 308.875 27.625C308.958 26.8333 308.875 26.2708 308.625 25.9375C308.375 25.5625 308.021 25.375 307.562 25.375ZM342.125 32.1875C342.292 31.9375 342.5 31.7917 342.75 31.75C343.042 31.6667 343.271 31.6875 343.438 31.8125C343.604 31.9375 343.688 32.1458 343.688 32.4375C343.729 32.7292 343.625 33.125 343.375 33.625C342.542 35.2083 341.438 36.9167 340.062 38.75C338.729 40.5833 337.312 42.3125 335.812 43.9375C334.312 45.5208 332.854 46.8333 331.438 47.875C330.021 48.9167 328.833 49.4375 327.875 49.4375C326.5 49.4375 325.354 49.1667 324.438 48.625C323.521 48.0833 322.792 47.4167 322.25 46.625C321.75 45.8333 321.396 44.9792 321.188 44.0625C320.979 43.1042 320.917 42.2292 321 41.4375C321.042 40.7708 321.188 39.5833 321.438 37.875C321.688 36.125 322.021 34.125 322.438 31.875C322.854 29.5833 323.312 27.1458 323.812 24.5625C324.354 21.9375 324.917 19.4167 325.5 17C324.792 17.0833 324.083 17.1667 323.375 17.25C322.667 17.3333 322.021 17.375 321.438 17.375C320.104 17.375 318.854 17.2292 317.688 16.9375C316.479 16.6042 315.583 16.2917 315 16C314.667 15.8333 314.521 15.6042 314.562 15.3125C314.604 14.9792 314.729 14.6667 314.938 14.375C315.146 14.0417 315.417 13.7708 315.75 13.5625C316.042 13.3125 316.312 13.1875 316.562 13.1875C317.354 13.2708 318.208 13.3542 319.125 13.4375C320.042 13.4792 321.042 13.4792 322.125 13.4375C322.917 13.3958 323.667 13.3333 324.375 13.25C325.125 13.1667 325.854 13.0625 326.562 12.9375C327.104 10.9375 327.625 9.20833 328.125 7.75C328.667 6.25 329.146 5.20833 329.562 4.625C329.688 4.41667 329.958 4.25 330.375 4.125C330.833 3.95833 331.312 3.85417 331.812 3.8125C332.312 3.72917 332.792 3.72917 333.25 3.8125C333.708 3.85417 334.042 4 334.25 4.25C334.458 4.58333 334.542 5.4375 334.5 6.8125C334.458 8.1875 334.229 9.9375 333.812 12.0625C335.562 12.0625 337.104 12.1667 338.438 12.375C339.812 12.5417 340.979 12.75 341.938 13C342.896 13.2083 343.667 13.4375 344.25 13.6875C344.833 13.8958 345.271 14.0417 345.562 14.125C345.854 14.2083 346 14.4167 346 14.75C346.042 15.0833 345.979 15.4375 345.812 15.8125C345.688 16.1458 345.458 16.4375 345.125 16.6875C344.792 16.9375 344.417 17.0208 344 16.9375C343.583 16.8958 343.104 16.8125 342.562 16.6875C342.062 16.5625 341.438 16.4583 340.688 16.375C339.979 16.2917 339.125 16.2083 338.125 16.125C337.125 16.0417 335.958 16 334.625 16C334.375 16 334.083 16.0208 333.75 16.0625C333.458 16.0625 333.146 16.0625 332.812 16.0625C332.646 16.7292 332.479 17.3958 332.312 18.0625C332.188 18.6875 332 19.3542 331.75 20.0625C331.208 21.7292 330.583 23.5417 329.875 25.5C329.25 27.2083 328.5 29.1667 327.625 31.375C326.75 33.5833 325.771 35.9375 324.688 38.4375C324.438 40.2292 324.458 41.6042 324.75 42.5625C325.083 43.4792 325.479 44.1458 325.938 44.5625C326.479 45.0208 327.146 45.2708 327.938 45.3125C328.562 45.3958 329.312 45.1875 330.188 44.6875C331.104 44.1458 332.042 43.4375 333 42.5625C333.958 41.6875 334.917 40.7292 335.875 39.6875C336.875 38.6458 337.792 37.625 338.625 36.625C339.458 35.625 340.188 34.7292 340.812 33.9375C341.438 33.1042 341.875 32.5208 342.125 32.1875Z" fill="black"/>
</svg>
